<svg width="126" height="41" viewBox="0 0 126 41" fill="none" xmlns="http://www.w3.org/2000/svg">
<path d="M99.5718 9.4605V21.3684C99.5718 22.6656 99.777 23.7827 100.187 24.7196C100.606 25.6566 101.184 26.4266 101.921 27.0315C102.667 27.6264 103.552 28.0676 104.578 28.3568C105.604 28.636 106.733 28.7765 107.962 28.7765C109.248 28.7765 110.428 28.6278 111.5 28.3303C112.121 28.1535 112.692 27.9238 113.215 27.6445C113.389 27.8709 113.596 27.9916 113.861 27.9701L113.94 27.9635L113.986 27.9007C114.13 27.704 114.243 27.3487 114.383 26.8646C115.123 26.2465 115.706 25.4781 116.129 24.5593C116.161 24.4866 116.192 24.4106 116.223 24.3362C116.245 24.3709 116.265 24.4023 116.289 24.4404C116.585 24.8832 116.826 25.3162 117.194 25.9755C117.469 26.4696 117.813 27.0843 118.293 27.9073L118.321 27.9536L118.37 27.9767C118.464 28.018 118.55 28.0362 118.627 28.0362C118.921 28.0362 119.1 27.7817 119.196 27.6445L119.23 27.5966L119.237 27.5636C119.514 26.2548 119.244 24.9857 118.984 23.7579C118.895 23.3414 118.805 22.9101 118.738 22.4921C118.555 21.3865 117.943 19.6448 117.784 19.2003C117.864 19.2053 117.907 19.0036 118.015 18.9194C118.823 18.2766 117.55 17.2157 116.79 16.591C116.823 16.6736 116.854 16.7513 116.787 16.5877C116.722 16.4192 116.754 16.4985 116.787 16.5811V9.4605H112.661V12.0962C111.562 11.5526 110.315 11.1361 109.039 10.8982L108.79 10.8519L108.841 11.0932C108.843 11.0998 108.985 11.7773 109.156 12.4664C109.342 13.1191 109.472 13.5438 109.604 13.9801C109.694 14.2808 109.788 14.5882 109.903 14.9798C110.106 14.2164 110.843 13.6496 111.722 13.6496C112.76 13.6496 113.6 14.4362 113.6 15.4062C113.6 16.0556 113.222 16.6224 112.659 16.9265V19.6993C112.336 19.8282 112.078 19.9671 111.76 20.1802C111.736 20.1951 111.717 20.2116 111.697 20.2281C111.495 19.4531 111.302 18.6864 111.182 18.0485C111.141 17.8271 111.026 17.4222 110.893 16.981C110.731 16.9066 110.582 16.8108 110.45 16.6968C110.599 17.176 110.737 17.6453 110.809 17.9394L109.8 19.0896C109.33 19.5705 109.181 20.1158 109.392 20.5867C109.624 21.1073 110.26 21.4163 111.026 21.375C111.117 21.7831 111.421 22.1401 111.909 22.4227C111.915 22.4508 111.922 22.4788 111.929 22.5069C112.02 22.892 112.086 23.2076 112.138 23.472C111.934 23.8802 111.68 24.2288 111.372 24.5197C110.972 24.9064 110.486 25.1955 109.917 25.3839C109.357 25.564 108.742 25.6549 108.07 25.6549C107.408 25.6549 106.806 25.569 106.266 25.3988C105.726 25.2187 105.264 24.9444 104.881 24.5742C104.498 24.1958 104.206 23.7182 104 23.1415C103.795 22.5565 103.693 21.8625 103.693 21.0594V9.4605H99.5718ZM117.551 18.5608C117.481 18.3741 117.389 18.1328 117.286 17.8634C117.483 18.0915 117.869 18.336 117.551 18.5608ZM116.787 17.5114C116.845 17.6585 116.9 17.8056 116.955 17.9444C116.898 17.9031 116.843 17.8634 116.787 17.8254V17.5114ZM116.787 21.1651V20.2414C117.054 20.0596 117.326 19.782 117.524 19.4829C117.741 20.1026 118.24 21.5733 118.401 22.54C118.468 22.9663 118.56 23.4009 118.649 23.8223C118.9 25.0072 119.16 26.2333 118.909 27.4644C118.772 27.6594 118.69 27.7305 118.56 27.6925C118.097 26.8976 117.763 26.2994 117.493 25.8169C117.122 25.1526 116.878 24.713 116.578 24.2635C116.505 24.1479 116.436 24.0421 116.37 23.9446C116.647 23.1283 116.787 22.2029 116.787 21.1651ZM113.921 27.2132C113.863 27.3884 113.808 27.5355 113.754 27.6363C113.666 27.6197 113.588 27.5636 113.512 27.476C113.653 27.3917 113.79 27.3041 113.921 27.2132ZM111.255 20.6975C111.216 20.7123 111.178 20.7272 111.139 20.7421C110.987 20.8032 110.843 20.8611 110.684 20.8611C110.577 20.8611 110.472 20.8346 110.366 20.7784C110.235 20.709 110.137 20.6066 110.108 20.5041C110.057 20.3289 110.144 20.124 110.207 19.9737C110.337 19.6696 110.566 19.4052 110.775 19.1871C110.845 19.1144 110.919 19.0152 110.984 18.9293C110.994 18.9161 111.004 18.9012 111.014 18.888C111.136 19.4118 111.279 19.9753 111.428 20.5388C111.382 20.5933 111.329 20.6479 111.255 20.6975ZM112.439 22.6738C112.416 22.7515 112.398 22.8325 112.372 22.9085C112.351 22.8176 112.329 22.7185 112.307 22.6177C112.353 22.6375 112.396 22.6557 112.439 22.6738Z" fill="black"/>
<path d="M116.79 16.5891C116.789 16.5859 116.789 16.5827 116.787 16.5811V16.5875C116.789 16.5875 116.789 16.5875 116.79 16.5891Z" fill="black"/>
<path d="M53.0664 27.5454C54.3249 28.0312 55.8261 28.2758 57.5702 28.2758C58.6235 28.2758 59.617 28.1849 60.5488 28.0048C61.491 27.8247 62.3579 27.5851 63.1496 27.2876C63.9413 26.9819 64.656 26.6299 65.2887 26.2333C65.923 25.8284 66.4634 25.4038 66.9113 24.9625V17.9626H60.9319C60.8703 17.4801 60.7917 16.9132 60.7027 16.3696L62.3511 14.1007C62.481 14.3089 62.5939 14.5237 62.6879 14.7452L66.4924 13.6364C66.2035 12.8795 65.8119 12.1987 65.3177 11.5955C64.9347 11.1113 64.4765 10.685 63.9413 10.3148C63.9481 10.3 63.9549 10.2868 63.9618 10.2719L63.9652 10.2636L63.9635 10.2554C63.8182 9.58775 62.1613 9.0953 61.5013 9.09365H61.4876L61.479 9.10522C61.4653 9.1234 61.4568 9.13992 61.4448 9.15645C61.2892 9.11183 61.1302 9.06886 60.9678 9.0292C60.0068 8.79455 58.9074 8.67722 57.6677 8.67722C56.8777 8.67722 56.139 8.72845 55.4431 8.8276V8.81108L55.426 8.80447C55.3234 8.7615 55.1849 8.74002 55.0122 8.74002C54.2188 8.74002 52.9552 9.18289 52.6252 9.50017L52.6167 9.50843V9.52C52.615 9.54974 52.6167 9.57618 52.6167 9.60427C51.6181 10.0356 50.7649 10.604 50.0604 11.3146C49.2311 12.1524 48.6104 13.1704 48.2 14.3684C47.7897 15.5665 47.5845 16.9099 47.5845 18.3955C47.5845 19.8282 47.776 21.1486 48.1573 22.3549C48.5489 23.5629 49.1507 24.6073 49.9612 25.4913C50.7717 26.3655 51.8062 27.0496 53.0664 27.5454ZM60.9011 20.909C60.9199 21.0709 60.9473 21.2543 60.9763 21.4576C61.0533 21.9897 61.1405 22.5929 61.1182 22.9564C61.0858 23.472 60.9678 23.6554 60.8771 23.6554C60.7181 23.6554 60.3454 23.3662 59.8221 22.5532C59.6341 22.2607 59.5024 21.9633 59.3759 21.6757C59.2596 21.4113 59.145 21.1535 58.9946 20.9106H60.9011V20.909ZM57.6215 12.9968C57.6215 12.2185 58.2952 11.5873 59.1245 11.5873C59.7384 11.5873 60.2667 11.9326 60.4993 12.4284C60.6634 12.5094 60.8207 12.5953 60.9661 12.6911C61.2602 12.8746 61.5166 13.0828 61.7424 13.3141C61.4192 13.985 61.084 14.456 60.4599 15.1186C60.4582 15.112 60.4565 15.1054 60.4548 15.0988C60.4018 14.8823 60.1658 14.4395 60.0342 14.1139C59.8974 14.2114 59.7418 14.2891 59.5742 14.3387L59.5862 14.342C59.7418 14.5204 60.0649 14.9303 60.1231 15.1732C60.3095 15.9465 60.4736 17.0835 60.5865 17.9609H58.3243V20.1868C58.2097 20.1158 58.0849 20.0794 57.9532 20.0794C57.6489 20.0794 57.3548 20.2744 57.1342 20.4463L57.1137 20.4645C56.7922 20.8098 56.4434 21.2097 56.1066 21.5948C55.8244 21.9186 55.556 22.2244 55.3132 22.4904C54.6617 23.2225 54.3129 23.3018 54.1932 23.3018C54.1864 23.3018 54.1795 23.3018 54.1727 23.3018C54.2975 22.6887 54.3915 22.0492 54.4839 21.4295C54.595 20.676 54.701 19.9638 54.8549 19.2994C54.9438 18.5806 55.1986 17.4817 55.3884 16.71C55.4277 16.7298 55.4671 16.7397 55.5098 16.7397C55.9099 16.7397 55.9988 15.8804 55.9988 15.5797C55.9988 15.4409 55.9852 15.3252 55.9595 15.2376C55.9407 15.1765 55.9168 15.1335 55.8911 15.1005C56.0484 14.927 56.2622 14.7601 56.5101 14.5667C56.6298 14.4742 56.7546 14.3767 56.8828 14.2726C57.0863 14.1057 57.5223 13.9437 57.7703 13.8627C57.7993 13.8578 57.8284 13.8512 57.8575 13.8479L57.9515 13.8743C57.7446 13.6347 57.6215 13.329 57.6215 12.9968ZM55.0105 12.2863C55.5508 12.0582 56.1647 11.9145 56.8504 11.85C56.7375 12.0797 56.6212 12.3061 56.4998 12.5391C56.163 13.1902 55.8159 13.8644 55.5201 14.727C55.1781 13.9883 54.9678 13.1142 54.8412 12.3606C54.8977 12.3358 54.9524 12.3094 55.0105 12.2863ZM52.0866 15.6921C52.3192 14.8807 52.6782 14.1866 53.1638 13.6099C53.4135 13.3125 53.699 13.0514 54.0188 12.8266C54.0684 13.2827 54.1299 13.7421 54.2052 14.1404C54.383 14.9815 54.7044 15.6904 55.1388 16.1911L55.1422 16.1944C55.1439 16.2043 55.1456 16.2159 55.149 16.2275C55.1507 16.2357 55.1524 16.2407 55.1541 16.2489C54.9626 16.9992 54.6275 18.3757 54.5215 19.2416C54.3676 19.9026 54.2599 20.6214 54.147 21.3816C54.0479 22.0442 53.947 22.73 53.8102 23.3762L53.7862 23.4869L53.8854 23.548C54.277 23.7876 54.8583 23.5083 55.5697 22.7069C55.8142 22.4408 56.0826 22.1335 56.3665 21.8079C56.6982 21.4279 57.0419 21.0346 57.3582 20.6958C57.5343 20.5603 57.76 20.4099 57.9549 20.4099C58.0404 20.4099 58.1191 20.4397 58.196 20.5025C58.2422 20.5405 58.285 20.5785 58.326 20.6165V20.909H58.5859C58.786 21.1783 58.9176 21.4758 59.063 21.8046C59.1946 22.1037 59.3314 22.4127 59.5332 22.7267C60.0701 23.5612 60.5232 23.9843 60.8771 23.9843C61.3952 23.9843 61.4431 23.2258 61.4585 22.9762C61.4824 22.5796 61.3935 21.96 61.3149 21.413C61.2892 21.2345 61.2636 21.061 61.2448 20.9106H63.1359V23.5464C62.8931 23.7529 62.5819 23.9562 62.1989 24.1545C61.8261 24.3429 61.4021 24.5147 60.9267 24.6684C60.4599 24.8122 59.9521 24.9295 59.4032 25.0204C58.8526 25.1113 58.2798 25.1559 57.6831 25.1559C56.6674 25.1559 55.7851 24.989 55.0396 24.6552C54.2941 24.3214 53.6734 23.857 53.1792 23.2638C52.6936 22.6689 52.3311 21.9567 52.0883 21.1288C51.8558 20.2992 51.7395 19.3903 51.7395 18.3988C51.7378 17.3958 51.8541 16.4935 52.0866 15.6921Z" fill="black"/>
<path d="M111.724 17.1611C112.066 17.1611 112.386 17.0736 112.663 16.9248C113.224 16.6208 113.604 16.0556 113.604 15.4046C113.604 14.4345 112.762 13.6479 111.726 13.6479C110.847 13.6479 110.11 14.2148 109.907 14.9782C109.871 15.1154 109.849 15.2575 109.849 15.4046C109.849 15.9152 110.083 16.3746 110.456 16.6951C110.587 16.8092 110.736 16.9034 110.899 16.9794C111.145 17.0951 111.425 17.1611 111.724 17.1611Z" fill="#E40E20"/>
<path d="M59.1246 14.4048C59.2819 14.4048 59.4324 14.3817 59.5743 14.3404C59.7436 14.2908 59.8974 14.2131 60.0342 14.1156C60.3933 13.8578 60.6276 13.453 60.6276 12.9969C60.6276 12.7953 60.5814 12.6019 60.4993 12.4284C60.2668 11.9327 59.7384 11.5873 59.1246 11.5873C58.2936 11.5873 57.6216 12.2185 57.6216 12.9969C57.6216 13.329 57.7447 13.6347 57.9516 13.876C58.2269 14.1982 58.6492 14.4048 59.1246 14.4048Z" fill="#E40E20"/>
<path d="M19.9354 27.8429C20.4175 27.671 20.8519 27.4545 21.2417 27.2C21.3409 27.2182 21.4537 27.2017 21.5495 27.1472C21.6487 27.091 21.7153 27.0067 21.7376 26.9092C21.7444 26.8811 21.7461 26.853 21.7513 26.8249C21.8436 26.7473 21.9342 26.6679 22.0197 26.5853C22.5891 26.035 23.0166 25.374 23.3055 24.599C23.5945 23.8157 23.7399 22.9416 23.7399 21.9765V8.96147H15.6983V10.842C15.6435 10.9957 15.5888 11.156 15.5341 11.3196C15.3939 11.7327 15.2468 12.1607 15.0895 12.5358C14.8672 13.0613 14.6108 13.5851 14.3628 14.0925C14.1354 14.5585 13.8994 15.0393 13.6908 15.5202C13.5079 15.9433 13.2617 16.5547 13.0411 17.1165C13.0342 17.1231 13.0291 17.1281 13.0257 17.1297L13.0325 17.1364C12.9436 17.3644 12.8581 17.5825 12.7812 17.7792C12.5521 17.8849 12.1417 18.0651 11.892 18.1328C11.7587 18.1692 11.6065 18.2105 11.4731 18.1973C11.2252 18.1725 10.9978 18.0931 10.8353 17.9725C10.5959 17.7974 10.4369 17.5131 10.2847 17.2388L10.2523 17.1859C10.083 16.8835 9.87095 16.2655 9.80427 16.0672C9.99577 15.9086 10.1257 15.7251 10.2078 15.4938C10.3583 15.0707 10.4284 14.7535 10.4643 14.3238C10.4728 14.2329 10.5549 14.1024 10.6284 13.985C10.7515 13.7868 10.8798 13.5818 10.8045 13.3802C10.7601 13.2613 10.6524 13.172 10.4848 13.1158C10.2352 13.0316 9.72048 13.3621 9.5512 13.7124C9.53068 13.7537 9.49819 13.8429 9.464 13.9355C9.45887 13.952 9.45203 13.9702 9.44348 13.99C9.28788 13.7884 9.12202 13.4182 9.02285 13.1935C8.98352 13.1043 8.94761 13.0233 8.91683 12.9622C8.89631 12.9192 8.87238 12.8614 8.84673 12.7986C8.7202 12.4879 8.56289 12.1012 8.24998 12.1624C8.15422 12.1805 8.07557 12.2367 8.02769 12.3193C7.93023 12.4912 7.96443 12.7853 8.13028 13.1902C8.23972 13.4579 8.32179 13.7355 8.36112 13.8991C7.60877 12.9704 7.24969 12.6564 6.99492 12.6945C6.89746 12.7093 6.82222 12.7754 6.78802 12.8729C6.65294 13.253 7.01886 13.6826 7.34203 14.0611C7.48395 14.228 7.64639 14.418 7.67032 14.5105C7.67374 14.5238 7.67545 14.5337 7.67716 14.5436C7.631 14.5304 7.54892 14.494 7.43949 14.3998C6.9573 13.9867 6.54009 13.876 6.31951 14.104C6.24257 14.185 6.23231 14.266 6.23744 14.3205C6.25283 14.4841 6.40672 14.5948 6.65978 14.7766C6.93165 14.9716 7.30441 15.2409 7.66861 15.6838C7.96272 16.0226 8.35257 16.1052 8.76636 16.1928C8.83818 16.2077 8.91341 16.2242 8.98694 16.2407L8.99207 16.2589C9.00062 16.287 9.20067 16.9595 9.36482 17.2884C9.54778 17.6552 9.77007 18.0733 10.0949 18.4038C10.3121 18.6253 10.5583 18.7922 10.808 18.8863C10.9943 18.9574 11.2081 18.9921 11.4765 18.9921C11.5005 18.9921 11.5261 18.9921 11.5501 18.9921C11.7279 18.9888 11.916 18.9541 12.1092 18.8896C12.1947 18.8616 12.2956 18.8186 12.3982 18.769C12.1827 19.3738 11.574 21.1304 11.403 22.1583C11.3739 22.3301 11.35 22.5053 11.3295 22.6805L10.1958 22.8408C10.3822 23.8223 10.6575 24.6618 11.0217 25.3542C11.1311 25.5558 11.2508 25.7442 11.3774 25.9243C11.4629 26.463 11.6099 26.9786 11.8664 27.3388C11.9348 27.4347 12.0305 27.4958 12.1434 27.514C12.1673 27.5173 12.193 27.5206 12.2169 27.5206C12.34 27.5206 12.4529 27.4727 12.5196 27.4248C12.6016 27.3653 12.6735 27.3041 12.7367 27.2414C13.2377 27.5669 13.8071 27.8131 14.4483 27.9767C15.2212 28.175 16.1035 28.2742 17.0918 28.2742C18.1673 28.2758 19.1146 28.132 19.9354 27.8429ZM19.6276 21.1519C19.6224 21.1321 19.6156 21.1139 19.6105 21.0941C19.4446 20.4777 19.3506 19.8365 19.2651 19.2119L19.6276 19.4548V21.1519ZM12.9624 19.0169V19.0665C12.959 19.0384 12.9573 19.0119 12.9624 19.0169ZM12.3195 27.162C12.3007 27.1752 12.246 27.1984 12.2032 27.1918C12.1879 27.1885 12.1708 27.1835 12.1502 27.1554C12.0271 26.9819 11.9331 26.7588 11.8596 26.5143C12.0391 26.7043 12.2323 26.8761 12.4375 27.0331C12.4443 27.0381 12.4512 27.043 12.458 27.048C12.417 27.086 12.3708 27.124 12.3195 27.162ZM14.6911 23.6125C14.5236 23.244 14.3936 22.7928 14.2996 22.2607L11.6869 22.6309C11.704 22.4904 11.7228 22.35 11.745 22.2112C11.9433 21.0115 12.7419 18.8318 12.7487 18.8103C12.7743 18.9706 12.9111 19.0648 12.9624 19.1127C12.9641 19.1144 12.9641 19.1127 12.9641 19.1127C13.1642 19.1111 13.3181 18.9343 13.4241 18.5839C13.4976 18.3377 13.5421 18.0254 13.5421 17.7478C13.5421 17.5016 13.5079 17.3231 13.4412 17.2091C13.7319 16.9595 14.2979 16.4853 14.6621 16.2688C15.004 16.0655 15.6401 15.8144 15.8402 15.7367C15.6162 15.4475 15.4828 15.0939 15.4828 14.7088C15.4828 13.7388 16.3241 12.9522 17.3603 12.9522C17.5056 12.9522 17.6458 12.9688 17.7809 12.9985C17.7775 12.9638 17.7484 12.6911 17.5791 12.2169C17.5689 12.1871 17.5518 12.1409 17.5313 12.083H19.6276V18.4071C19.3489 18.1675 19.1026 17.9329 19.065 17.8982C19.0274 17.6899 18.9864 17.4801 18.9351 17.2719C18.8581 16.948 18.5401 16.5233 18.3383 16.2754L18.3263 16.211C18.2152 16.2738 18.0989 16.325 17.9741 16.3646C18.1673 16.5894 18.5332 17.0587 18.6016 17.3446C18.7453 17.9395 18.8291 18.5492 18.9094 19.1392C19.0018 19.8101 19.0975 20.5025 19.2788 21.175C19.3848 21.5667 19.4993 21.9468 19.619 22.3186C19.5848 23.1878 19.3745 23.867 18.9829 24.3528C18.8786 24.4866 18.7607 24.6023 18.6307 24.7015C18.0989 24.2024 17.5244 23.7695 16.8353 23.586C16.2847 23.439 15.6606 23.4951 15.1682 23.7381C15.0588 23.7926 14.9544 23.8554 14.8553 23.9215C14.7988 23.8256 14.7424 23.7232 14.6911 23.6125ZM16.1172 25.0039C15.8094 24.8965 15.5341 24.7296 15.293 24.5032C15.2041 24.4139 15.1203 24.3115 15.0399 24.2024C15.1306 24.1396 15.2246 24.0818 15.3238 24.0339C15.7376 23.8306 16.2813 23.7827 16.7464 23.9066C17.338 24.0653 17.8544 24.4437 18.3366 24.8882C17.998 25.0634 17.5962 25.1526 17.126 25.1526C16.7601 25.1526 16.425 25.103 16.1172 25.0039Z" fill="black"/>
<path d="M82.6577 28.0048V20.7735H87.4967L92.0707 28.0048H96.713L91.385 20.0034C92.0091 19.8597 92.5871 19.6333 93.1188 19.3276C93.6506 19.0119 94.1072 18.6253 94.4902 18.1659C94.8817 17.7065 95.1844 17.1843 95.3998 16.5976C95.6238 16.0027 95.735 15.35 95.735 14.6378C95.735 13.7636 95.5811 12.9803 95.2733 12.2863C94.9758 11.584 94.5175 10.9891 93.902 10.5016C93.2864 10.0058 92.517 9.62743 91.5953 9.36633C90.6805 9.09532 89.6084 8.96147 88.379 8.96147H78.5335V17.1083C78.5266 17.143 78.5181 17.176 78.5113 17.2124C78.4685 17.0471 78.407 16.7216 78.3796 16.3927C78.33 15.7846 78.1539 15.464 77.8718 15.464C77.8427 15.464 77.8136 15.4673 77.7846 15.4756C77.4682 15.5566 77.5024 15.9912 77.5315 16.3382C77.5366 16.4093 77.5435 16.4754 77.5435 16.5266C77.5435 16.5993 77.5486 16.6902 77.5537 16.7943C77.5657 17.0587 77.5879 17.4999 77.5315 17.761C77.511 17.7412 77.4905 17.723 77.4734 17.7065C77.3964 17.6338 77.3229 17.5644 77.2836 17.533C77.0459 17.3462 76.7022 17.2801 76.4799 17.2801C76.3123 17.2801 76.1926 17.3148 76.1225 17.3826C75.9926 17.5082 75.9327 17.6387 75.9481 17.7693C75.9721 17.9907 76.1909 18.1262 76.403 18.2584C76.5346 18.341 76.6731 18.4253 76.7244 18.5096C76.9655 18.9012 77.1844 19.1706 77.5298 19.506C77.6563 19.6283 77.8153 19.7192 77.9692 19.8084C78.0958 19.8811 78.2154 19.9506 78.3078 20.0299C78.3334 20.248 78.3659 20.7057 78.2838 20.9123C78.2411 21.0214 78.1676 21.1089 78.094 21.1403C77.9761 21.1899 77.7846 21.1552 77.5913 21.1073C77.2682 21.0247 76.9724 20.8412 76.6971 20.6611C76.3311 20.4215 75.7276 19.8613 75.5463 19.6928C75.5053 19.4713 75.4625 19.2482 75.4095 19.0285C75.3206 18.6616 75.0265 18.0419 74.8743 17.7445C74.7854 17.799 74.6914 17.8469 74.5939 17.8882C74.77 18.1708 75.006 18.8054 75.0778 19.1028C75.1103 19.2416 75.1394 19.3804 75.1684 19.5193L75.2847 20.2232L75.3753 20.7884C75.3856 20.8611 75.3958 20.9338 75.4061 21.0048C75.5036 21.7138 75.6044 22.4475 75.7977 23.1597C76.3123 25.0634 76.9809 26.7489 77.7828 28.1651C78.041 28.6228 78.1111 28.8839 78.0479 29.1632C78.0462 29.1682 78.0376 29.183 78.0137 29.1963C77.9829 29.2144 77.947 29.2177 77.9299 29.2144C77.1502 28.993 76.4919 28.3188 75.7942 27.6049C75.4317 27.2331 75.0607 26.858 74.664 26.5341V23.8802H73.1542C72.6549 23.7149 72.0889 23.6224 71.8102 23.6009C71.7076 23.5926 71.5862 23.6009 71.4563 23.6108C71.3673 23.6174 71.2733 23.624 71.181 23.624C71.0459 23.624 70.945 23.6092 70.8646 23.5745L70.8424 23.5662C70.839 23.5646 70.4902 23.4687 70.1037 23.2539C69.8592 23.1167 69.7258 23.0506 69.613 22.9944C69.4591 22.9168 69.3463 22.8606 69.0162 22.6524C68.8709 22.5598 68.5956 22.2079 68.4947 22.0591C68.3853 21.7121 68.2844 21.3684 68.8641 20.828C69.1052 20.6033 69.2796 20.5818 69.3428 20.5818L69.3924 20.5868C69.5053 20.5868 69.7156 20.5421 69.8507 20.248C69.9225 20.091 69.9635 19.8845 69.9635 19.668C69.9635 19.2697 69.837 18.9921 69.6352 18.9161C69.9533 18.6434 70.5192 18.1741 70.8886 17.9543C71.2374 17.7478 71.959 17.4553 72.2274 17.3479C71.9846 17.0554 71.8393 16.6918 71.8393 16.2969C71.8393 15.3269 72.7079 14.5403 73.7783 14.5403C73.9305 14.5403 74.0792 14.5585 74.2211 14.5882C74.1955 14.4428 74.1203 14.0809 73.9749 13.6711C73.8928 13.4414 73.4722 12.2764 73.2294 11.8418C73.1815 11.7558 73.1354 11.6534 73.0892 11.5542C72.9541 11.2584 72.8584 11.0453 72.66 11.042C72.5437 11.0469 72.4634 11.1048 72.3984 11.2337C72.2001 11.6236 72.0171 12.1574 71.8239 12.7225C71.6751 13.1605 71.5195 13.6116 71.3537 14.0098C71.1194 14.5667 70.8458 15.122 70.5825 15.659C70.3414 16.1515 70.0918 16.6604 69.8695 17.1711C69.6745 17.6205 69.4146 18.2683 69.1804 18.8649C69.1718 18.8731 69.165 18.8781 69.1633 18.8797L69.1718 18.888C69.1257 19.007 69.1445 18.9591 69.1017 19.0714C69.0898 19.1326 69.0675 19.1474 69.0214 19.1871C68.8709 19.359 68.9376 19.273 68.794 19.4366C68.7085 19.5506 68.6076 19.6647 68.4691 19.7572C68.228 19.9208 68.0279 20.1026 67.8757 20.2976C67.6586 20.5768 67.5201 20.8412 67.4517 21.1056C67.3559 21.4775 67.3491 21.8278 67.4346 22.1203C67.5457 22.502 67.7287 22.9647 68.1425 23.2357C68.0912 23.5613 68.0399 23.8719 67.9972 24.1347C67.8894 24.7808 67.6757 25.4385 67.45 26.1358C67.4021 26.2829 67.3542 26.4316 67.3064 26.5787C67.2294 26.82 67.0909 27.1257 66.9439 27.4479C66.5078 28.4097 66.0137 29.5003 66.7472 29.8143C66.819 29.8457 66.8874 29.8589 66.9524 29.8589C67.1969 29.8589 67.4021 29.6705 67.6158 29.4722C67.7355 29.3632 67.8569 29.2491 68.0023 29.1467C68.3733 28.8856 68.6298 28.6113 68.8777 28.3469C69.006 28.2097 69.1394 28.0676 69.2881 27.9271C69.6899 27.5471 70.1379 27.1439 70.6201 26.7869V27.9998H74.6623V26.9703C74.9667 27.2381 75.2573 27.5355 75.5446 27.828C76.2747 28.5749 76.9638 29.2805 77.8307 29.5268C77.9419 29.5581 78.0735 29.54 78.1847 29.4772C78.2873 29.4193 78.3557 29.3318 78.3779 29.231C78.4736 28.8145 78.3334 28.4543 78.0804 28.0048C77.2921 26.6118 76.6338 24.9527 76.126 23.0738C75.9464 22.4078 75.8473 21.7138 75.7549 21.0395L76.7398 21.6989C77.0989 21.9253 77.4734 22.0443 77.8222 22.0443C78.0838 22.0443 78.3266 21.9782 78.5369 21.8542V27.9982H82.6577V28.0048ZM82.6577 12.0566H87.9447C89.1109 12.0566 90.0051 12.2813 90.6292 12.7325C91.2636 13.1836 91.5799 13.8727 91.5799 14.7997C91.5799 15.2228 91.5098 15.6111 91.3696 15.9614C91.2294 16.3134 91.0157 16.6191 90.7267 16.8802C90.4463 17.1331 90.0838 17.3314 89.6358 17.4751C89.1981 17.6106 88.6714 17.6784 88.0559 17.6784H82.6577V12.0566ZM70.6167 26.3837C70.0405 26.7836 69.5121 27.2562 69.047 27.6974C68.8897 27.8445 68.7546 27.9899 68.623 28.132C68.3767 28.3948 68.1442 28.6443 67.8005 28.8856C67.6381 29.0013 67.5013 29.1268 67.3799 29.2392C67.1217 29.4772 67.0054 29.5697 66.884 29.5185C66.4617 29.3384 66.9199 28.3254 67.2551 27.5867C67.4055 27.2546 67.5474 26.9406 67.6295 26.6812C67.6774 26.5341 67.7236 26.387 67.7714 26.2399C68.0023 25.531 68.2194 24.8601 68.3306 24.1909C68.3682 23.9628 68.4109 23.7001 68.4554 23.4224C69.495 23.9909 70.1944 24.3131 70.4183 24.4123C70.4508 24.566 70.4406 24.6668 70.4286 24.7725C70.4098 24.9295 70.391 25.0931 70.5124 25.3559C70.55 25.4534 70.5842 25.5509 70.6184 25.6467V26.3837H70.6167Z" fill="black"/>
<path d="M40.5211 16.3266C40.2082 15.3533 39.425 14.2676 39.0198 13.8281C39.3225 13.2894 39.0831 12.6779 38.9634 12.4383C38.7821 12.0979 38.6744 11.8104 38.594 11.6005C38.4846 11.3097 38.4231 11.1494 38.288 11.1494C38.2692 11.1494 38.2504 11.1527 38.2281 11.1593C38.0469 11.2171 38.0178 11.5113 38.1495 11.9244C38.1973 12.0731 38.1991 12.207 38.1546 12.2648C38.1204 12.3111 38.0571 12.2995 37.9819 12.24C37.8998 12.1756 37.8126 12.0021 37.7203 11.8186C37.5527 11.4865 37.3629 11.1097 37.0876 11.0849C37.0278 11.0783 36.997 11.1064 36.9816 11.1295C36.879 11.2931 37.1765 11.8864 37.4809 12.4466C37.5065 12.4945 37.5271 12.5325 37.539 12.554C37.5305 12.597 37.5065 12.6168 37.4672 12.6168C37.4416 12.6168 37.4176 12.6085 37.4057 12.6036C37.3629 12.5854 37.2432 12.4978 37.103 12.3805C36.9748 12.0368 36.773 11.5113 36.6379 11.2717C36.6003 11.2056 36.5661 11.1295 36.5319 11.0552C36.4276 10.8255 36.3438 10.6437 36.1677 10.6404C36.0976 10.6305 36.0018 10.6668 35.93 10.809C35.7761 11.1097 35.6376 11.5179 35.4906 11.9492C35.4376 12.1062 35.3829 12.2648 35.3264 12.4218C35.3111 12.3772 35.2769 12.3507 35.2204 12.3507C34.9742 12.3507 34.3142 12.8746 34.0321 13.0993C33.9893 13.134 33.9551 13.1605 33.9346 13.1753C33.9055 13.1753 33.885 13.1671 33.8713 13.1522C33.8508 13.1274 33.8508 13.0877 33.8576 13.058C33.873 12.9853 34.0423 12.668 34.2321 12.397C34.3364 12.2483 34.5057 11.974 34.4595 11.8153C34.4458 11.7707 34.4185 11.7393 34.374 11.7211C34.3569 11.7145 34.3398 11.7112 34.3227 11.7112C34.1859 11.7112 34.0406 11.9178 33.9226 12.0847C33.8901 12.131 33.8576 12.1756 33.832 12.207C33.7978 12.2499 33.7551 12.3061 33.7089 12.3689C33.5259 12.6135 33.2506 12.9787 33.0557 13.0398C33.0455 13.0002 33.0335 12.901 33.0249 12.8316C33.0147 12.7556 33.0061 12.6845 32.9976 12.6482C32.936 12.3755 32.6351 12.0996 32.5017 12.0996C32.4983 12.0996 32.4949 12.0996 32.4914 12.0996C32.382 12.1111 32.3102 12.1458 32.2709 12.2037C32.2025 12.3078 32.2555 12.4598 32.3102 12.6201C32.3529 12.7424 32.3957 12.8663 32.382 12.9638C32.3341 13.2993 32.3307 13.5554 32.3718 13.9057C32.3923 14.0792 32.4504 14.2181 32.5684 14.3602C32.5222 14.423 31.9272 15.2277 31.5561 15.9598V8.96147H27.4302V20.8693C27.4302 22.1665 27.6354 23.2836 28.0457 24.2206C28.4647 25.1576 29.0426 25.9276 29.7796 26.5324C30.5251 27.1273 31.4108 27.5685 32.4367 27.8577C33.4627 28.137 34.5895 28.2775 35.8206 28.2775C37.1064 28.2775 38.2863 28.1287 39.3584 27.8313C40.439 27.5256 41.3726 27.0612 42.1557 26.4399C42.9389 25.8086 43.5493 25.0171 43.9887 24.0603C44.4282 23.1035 44.6453 21.9749 44.6453 20.6677V8.96147H40.5194V16.3266H40.5211ZM34.3484 13.5306C34.3963 13.4414 34.5536 13.3224 34.7211 13.1968C34.887 13.0729 35.0631 12.9374 35.1845 12.7986C35.1674 12.8432 35.1486 12.8894 35.1315 12.9324C35.0443 13.1406 34.9486 13.3472 34.8528 13.5521C34.8032 13.5736 34.7536 13.5967 34.7023 13.6248C34.598 13.6793 34.5006 13.7107 34.4253 13.7107C34.3911 13.7107 34.3467 13.7041 34.3262 13.6727C34.3073 13.643 34.3159 13.5934 34.3484 13.5306ZM32.1187 16.3514C32.329 15.74 32.8557 14.8807 33.0472 14.5783C33.0711 14.5799 33.0967 14.5816 33.119 14.5833C33.2609 14.5932 33.396 14.6031 33.5191 14.6031C33.7995 14.6031 33.9927 14.5485 34.1654 14.423C34.3022 14.3155 34.4356 14.228 34.5621 14.1536C34.5553 14.1668 34.5484 14.1817 34.5416 14.1949C34.3569 14.5717 34.1671 14.96 33.9979 15.35C33.8491 15.6921 33.6525 16.1829 33.4746 16.6373C33.4729 16.639 33.4695 16.6423 33.4678 16.6439L33.4712 16.6472C33.396 16.8389 33.3225 17.0256 33.2592 17.1892C33.1395 17.176 33.0386 17.1678 32.9548 17.1611C32.659 17.138 32.5085 17.1264 32.1529 16.9661C32.1084 16.9463 32.0794 16.9116 32.0623 16.8587C32.0246 16.7414 32.0537 16.5596 32.1187 16.3514ZM32.0298 22.5978C32.0332 22.7482 32.04 22.9135 32.052 23.0837C31.9836 22.9416 31.9203 22.7945 31.8656 22.6392C31.6604 22.0542 31.5578 21.3601 31.5578 20.5587V17.3413C31.9169 17.6883 32.3632 17.8238 32.7035 17.8238H32.7291C32.765 17.8238 32.8129 17.8287 32.8625 17.8354C32.9121 17.8403 32.9617 17.8453 33.0061 17.8469C32.9155 18.0965 32.3051 19.7936 32.1495 20.7371C32.0503 21.3271 32.0127 21.9368 32.0298 22.5978ZM37.7801 24.8832C37.221 25.0634 36.6054 25.1543 35.9352 25.1543C35.2734 25.1543 34.6716 25.0683 34.1312 24.8981C33.9055 24.8238 33.6986 24.7279 33.5003 24.6205C33.5738 24.5098 33.6371 24.3958 33.7003 24.2784C33.7722 24.1446 33.8474 24.0041 33.9466 23.8587C33.9961 23.786 34.0457 23.7133 34.0953 23.6389C34.4527 23.1085 34.822 22.5582 35.3675 22.2905C35.6958 22.1302 36.1284 22.0905 36.496 22.1897C37.2073 22.3797 37.7853 22.9713 38.3444 23.5431C38.5718 23.7761 38.7941 24.0025 39.0232 24.2041C38.6659 24.4949 38.2538 24.7246 37.7801 24.8832ZM39.2746 23.9744C39.0455 23.7761 38.8215 23.548 38.5923 23.3134C38.0024 22.7086 37.3903 22.0839 36.5866 21.8691C36.1335 21.7468 35.6188 21.7947 35.2119 21.9947C34.5843 22.3037 34.1894 22.8903 33.8081 23.4588C33.7585 23.5315 33.7106 23.6042 33.661 23.6769C33.5516 23.8372 33.4695 23.9909 33.396 24.1264C33.3327 24.2437 33.2763 24.3478 33.2096 24.4453C33.0455 24.333 32.8864 24.214 32.7445 24.0752C32.6453 23.9777 32.553 23.8719 32.4658 23.7612C32.3889 23.2886 32.3752 22.8143 32.37 22.5929C32.3529 21.9517 32.3906 21.3618 32.4863 20.79C32.6317 19.9158 33.2028 18.303 33.3173 17.9857C33.331 18.0766 33.3566 18.1592 33.3926 18.1939C33.4353 18.2353 33.4798 18.2567 33.5242 18.2567C33.7551 18.2567 33.8833 17.6652 33.8833 17.257C33.8833 17.1132 33.8662 16.8868 33.7704 16.824C33.9637 16.6555 34.504 16.1944 34.834 15.9978C35.1093 15.8342 35.6223 15.6309 35.783 15.5681C35.6154 15.3368 35.518 15.0575 35.518 14.7584C35.518 13.9603 36.2105 13.3141 37.0637 13.3141C37.6775 13.3141 38.2076 13.6512 38.4572 14.1354C38.541 14.1206 38.6231 14.1057 38.6966 14.1024C38.8129 14.2594 39.8029 15.7218 39.9602 16.8257C40.0201 17.3479 39.7038 17.2669 39.4079 17.2669C39.2438 17.2669 38.9753 17.2652 38.7479 17.2091C38.6641 17.1876 38.5085 17.1843 38.4111 17.1628C38.3752 16.9595 38.3615 16.9794 38.3136 16.7761C38.2692 16.5894 38.0862 16.2176 37.9357 15.9532C37.828 16.0209 37.7117 16.0755 37.5869 16.1168C37.7391 16.3332 37.9374 16.6637 37.9819 16.8505C38.0982 17.3313 38.1649 17.8238 38.2315 18.303C38.3068 18.8467 38.3837 19.4085 38.5308 19.9539C38.871 21.2114 39.2985 22.3417 39.8029 23.3266C39.6473 23.5662 39.4712 23.7827 39.2746 23.9744ZM40.5211 20.4232C40.5211 21.2428 40.4099 21.9501 40.1859 22.545C40.1295 22.692 40.0697 22.8342 40.0013 22.9697C39.5516 22.0542 39.1669 21.0164 38.8574 19.8696C38.7154 19.3441 38.6385 18.7922 38.5667 18.2584C38.5513 18.1411 38.5342 18.0221 38.5171 17.9031C38.7189 17.9395 39.1104 18.0006 39.4934 18.0006C40.0013 18.0006 40.333 17.8965 40.4783 17.6916C40.4937 17.6685 40.5074 17.6453 40.5211 17.6222V20.4232Z" fill="black"/>
<path d="M37.0633 16.201C37.2463 16.201 37.4207 16.1696 37.5831 16.1151C37.7079 16.0738 37.8242 16.0193 37.9319 15.9515C38.3406 15.6921 38.6091 15.2525 38.6091 14.7568C38.6091 14.5337 38.5526 14.3222 38.4569 14.1338C38.2072 13.6479 37.6789 13.3125 37.0633 13.3125C36.2101 13.3125 35.5176 13.9586 35.5176 14.7568C35.5176 15.0575 35.615 15.3351 35.7826 15.5665C36.0613 15.9499 36.5298 16.201 37.0633 16.201Z" fill="#E40E20"/>
<path d="M17.3604 16.4654C17.5758 16.4654 17.7827 16.4291 17.9759 16.3663C18.099 16.3266 18.217 16.2737 18.3282 16.2126C18.8736 15.9052 19.2395 15.3483 19.2395 14.7088C19.2395 13.8743 18.6154 13.177 17.781 12.9985C17.6459 12.9687 17.5057 12.9522 17.3604 12.9522C16.3225 12.9522 15.4829 13.7388 15.4829 14.7088C15.4829 15.0938 15.6163 15.4475 15.8403 15.7367C16.1805 16.1762 16.7345 16.4654 17.3604 16.4654Z" fill="#E40E20"/>
<path d="M71.834 16.3002C71.834 16.6951 71.9793 17.0587 72.2221 17.3512C72.5761 17.7792 73.1386 18.0568 73.773 18.0568C74.0654 18.0568 74.3424 17.9957 74.5903 17.8915C74.6878 17.8502 74.7818 17.8023 74.8707 17.7478C75.3786 17.4305 75.712 16.9017 75.712 16.3019C75.712 15.4706 75.0725 14.7749 74.2159 14.5932C74.0739 14.5634 73.9252 14.5452 73.773 14.5452C72.7026 14.5452 71.834 15.3302 71.834 16.3002Z" fill="#E40E20"/>
<path d="M0 0V37.4157H43.0533V35.1849H2.30664V2.22921H123.693V35.1849H82.2799V37.4157H126V0H0Z" fill="#E40E20"/>
<path d="M53.3913 35.1551C53.0322 34.6247 52.615 34.3966 51.9345 34.3966C50.6469 34.3966 49.7954 35.3485 49.7954 36.7828C49.7954 38.2007 50.6093 39.1063 51.8781 39.1063C52.521 39.1063 53.0032 38.8683 53.3742 38.3742L53.3639 38.9046C53.3554 39.6648 53.1844 40.1308 52.285 40.1308C51.6985 40.1308 51.4044 39.9474 51.3001 39.526H49.9664C50.0981 40.5142 50.847 40.9984 52.2559 40.9984C53.8461 40.9984 54.66 40.3208 54.66 38.7493V34.5239H53.3913V35.1551ZM52.2559 38.1379C51.5566 38.1379 51.1206 37.6074 51.1206 36.7746C51.1206 35.9153 51.5378 35.403 52.2474 35.403C52.957 35.403 53.3828 35.9054 53.3828 36.7481C53.381 37.6058 52.9467 38.1379 52.2559 38.1379Z" fill="black"/>
<path d="M57.0537 35.3931V34.5238H55.7764V39.2434H57.1203V37.0852C57.1203 36.2243 57.4794 35.5847 58.4079 35.5847C58.5601 35.5847 58.6917 35.593 58.9277 35.6393V34.4412C58.796 34.423 58.7379 34.4131 58.6336 34.4131C57.9052 34.4148 57.3563 34.78 57.0537 35.3931Z" fill="black"/>
<path d="M61.6725 34.3884C60.1387 34.3884 59.1265 35.3848 59.1265 36.8853C59.1265 38.394 60.1302 39.3904 61.6537 39.3904C63.1772 39.3904 64.1706 38.4023 64.1706 36.8853C64.1706 35.3848 63.1772 34.3884 61.6725 34.3884ZM61.6537 38.4122C60.9065 38.4122 60.4704 37.8536 60.4704 36.8853C60.4704 35.9433 60.915 35.3765 61.6349 35.3765C62.3821 35.3765 62.8267 35.9351 62.8267 36.877C62.8267 37.8437 62.3923 38.4122 61.6537 38.4122Z" fill="black"/>
<path d="M68.2979 36.9564C68.2979 37.6702 68.0807 38.2916 67.2377 38.2916C66.4717 38.2916 66.4136 37.8157 66.4136 37.2224V34.5239H65.061V37.6967C65.061 38.8204 65.7142 39.3789 66.7641 39.3789C67.4634 39.3789 67.985 39.0963 68.3543 38.5742V39.2418H69.6316V34.5222H68.2979V36.9564Z" fill="black"/>
<path d="M73.4468 34.3966C72.8227 34.3966 72.2926 34.6247 71.9318 35.1105V34.5255H70.6631V40.9174H71.9968V38.6584C72.3559 39.1426 72.8859 39.3624 73.5015 39.3624C74.7788 39.3624 75.6217 38.3924 75.6217 36.9117C75.6235 35.3931 74.7617 34.3966 73.4468 34.3966ZM73.1253 38.3478C72.3866 38.3478 71.9523 37.809 71.9523 36.8936C71.9523 35.9781 72.3884 35.4394 73.1168 35.4394C73.8366 35.4394 74.2812 35.988 74.2812 36.9117C74.2795 37.8074 73.8435 38.3478 73.1253 38.3478Z" fill="black"/>
</svg>
